<svg xmlns="http://www.w3.org/2000/svg" viewBox="0 0 512 512"><defs><linearGradient id="g" x1="0" y1="0" x2="1" y2="1"><stop stop-color="#0f4c5c"/><stop offset="1" stop-color="#0f766e"/></linearGradient></defs><rect width="512" height="512" rx="112" fill="url(#g)"/><path d="M256 92l30 31 43-10 13 42 42 13-10 43 31 30-31 30 10 43-42 13-13 42-43-10-30 31-30-31-43 10-13-42-42-13 10-43-31-30 31-30-10-43 42-13 13-42 43 10z" fill="#fff" opacity=".94"/><circle cx="256" cy="256" r="74" fill="#0f4c5c"/><text x="256" y="289" text-anchor="middle" font-family="sans-serif" font-size="96" font-weight="900" fill="#fff">あ</text><rect x="324" y="98" width="92" height="58" rx="18" fill="#fff" opacity=".96"/><text x="370" y="136" text-anchor="middle" font-family="sans-serif" font-size="32" font-weight="900" fill="#0f4c5c">AI</text></svg>